<svg xmlns="http://www.w3.org/2000/svg" xmlns:xlink="http://www.w3.org/1999/xlink" version="1.1" id="Layer_1" x="0px" y="0px" width="100px" height="100px" viewBox="0 0 100 100" style="enable-background:new 0 0 100 100;" xml:space="preserve" fill="#f9f9f9">
<path d="M52.148,24.148c-0.701-0.075-1.409-0.121-2.125-0.121c-0.01,0-0.014,0-0.014,0s0,0-0.007,0  c-0.727,0-1.441,0.046-2.149,0.121C20.877,25.434,8.03,50.005,8.03,50.005S21.529,75.973,50.01,75.973  c28.469,0,41.96-25.967,41.96-25.967S79.126,25.434,52.148,24.148z M43.145,36.884c3.086,0,5.587,2.5,5.587,5.58  c0,3.087-2.501,5.594-5.587,5.594c-3.082,0-5.58-2.507-5.58-5.594C37.564,39.384,40.062,36.884,43.145,36.884z M50.01,68.59  c-18.093,0-29.092-12.317-33.518-18.584c2.659-3.774,7.728-9.74,15.29-13.894c-1.002,2.362-1.551,4.964-1.551,7.687  c0,10.923,8.849,19.777,19.771,19.777c10.925,0,19.776-8.854,19.776-19.777c0-2.708-0.551-5.293-1.537-7.645  c7.529,4.157,12.606,10.105,15.272,13.858C79.089,56.272,68.088,68.59,50.01,68.59z"/>
</svg>
