<svg xmlns="http://www.w3.org/2000/svg" xmlns:xlink="http://www.w3.org/1999/xlink" version="1.1" id="Layer_14" x="0px" y="0px" width="22px" height="22px" viewBox="0 0 100 100" enable-background="new 0 0 100 100" xml:space="preserve" fill="#eeeeee">
<g>
	<path d="M6.833,81.105l12.796,12.796L80.662,32.87L67.865,20.074L6.833,81.105z M67.865,41.73l-8.859-8.86   l8.859-8.859l8.86,8.859L67.865,41.73z"/>
	<polygon points="33.496,30.712 40.244,25.77 46.993,30.594 44.415,22.737 51.162,17.75 42.822,17.75 40.244,9.817    37.667,17.75 29.325,17.75 36.075,22.716  "/>
	<polygon points="76.299,60.906 75.048,57.059 73.797,60.906 69.751,60.906 73.024,62.899 71.774,66.48    75.048,64.062 78.321,66.45 77.07,62.904 80.345,60.906  "/>
	<polygon points="93.167,12.182 86.77,12.182 84.793,6.098 82.816,12.182 76.418,12.182 81.595,15.74 79.618,21.74    84.793,17.917 89.967,21.64 87.99,15.755  "/>
</g>
</svg>
