<svg xmlns="http://www.w3.org/2000/svg" xmlns:xlink="http://www.w3.org/1999/xlink" version="1.1" baseProfile="full" width="22" height="22" viewBox="0 0 100.00 100.00" enable-background="new 0 0 100.00 100.00" xml:space="preserve" fill="#eeeeee">
	<path fill-opacity="1" stroke-width="0.2" stroke-linejoin="round" d="M 53.5716,3.5718L 67.1475,31.8549L 61.7391,35.0999L 53.5716,17.8575L 53.5716,3.5718 Z "/>
	<path fill-opacity="1" stroke-width="0.2" stroke-linejoin="round" d="M 76.7304,51.8194L 71.2238,55.1233L 64.3737,40.662L 69.8094,37.4006L 76.7304,51.8194 Z "/>
	<path fill-opacity="1" stroke-width="0.2" stroke-linejoin="round" d="M 86.3134,71.7839L 80.7086,75.1468L 73.8585,60.6854L 79.3924,57.3651L 86.3134,71.7839 Z "/>
	<path fill-opacity="1" stroke-width="0.2" stroke-linejoin="round" d="M 96.4287,92.8575L 89.2859,92.8575L 85.7144,85.7147L 83.3433,80.7088L 88.9753,77.3296L 96.4287,92.8575 Z "/>
	<path fill-opacity="1" stroke-width="0.2" stroke-linejoin="round" d="M 67.8573,92.8575L 67.8573,85.7147L 75.0002,85.7147L 78.5716,85.7147L 78.5716,92.8575L 67.8573,92.8575 Z "/>
	<path fill-opacity="1" stroke-width="0.2" stroke-linejoin="round" d="M 53.5716,92.8575L 53.5716,82.1432L 60.7144,82.1432L 60.7144,85.7147L 60.7144,92.8575L 53.5716,92.8575 Z "/>
	<rect x="53.5716" y="64.2861" fill-opacity="1" stroke-width="0.2" stroke-linejoin="round" width="7.14286" height="10.7143"/>
	<path fill-opacity="1" stroke-width="0.2" stroke-linejoin="round" d="M 53.5715,32.1433L 60.7144,47.4494L 60.7144,57.1433L 53.5715,57.1433L 53.5715,32.1433 Z "/>
	<path fill-opacity="1" stroke-width="0.2" stroke-linejoin="round" d="M 46.4288,3.5718L 46.4288,92.8575L 3.57162,92.8575L 46.4288,3.5718 Z M 39.2859,32.1432L 14.2859,85.7147L 39.2859,85.7147L 39.2859,32.1432 Z "/>
</svg>
